<svg width="17" height="17" viewBox="0 0 17 17" fill="none" xmlns="http://www.w3.org/2000/svg">
<path d="M8.51897 4.11719C6.0904 4.11719 4.15513 6.0904 4.15513 8.48103C4.15513 10.9096 6.0904 12.8449 8.51897 12.8449C10.9096 12.8449 12.8828 10.9096 12.8828 8.48103C12.8828 6.0904 10.9096 4.11719 8.51897 4.11719ZM8.51897 11.327C6.96317 11.327 5.67299 10.0748 5.67299 8.48103C5.67299 6.92522 6.92522 5.67299 8.51897 5.67299C10.0748 5.67299 11.327 6.92522 11.327 8.48103C11.327 10.0748 10.0748 11.327 8.51897 11.327ZM14.0592 3.9654C14.0592 3.39621 13.6038 2.94085 13.0346 2.94085C12.4654 2.94085 12.01 3.39621 12.01 3.9654C12.01 4.5346 12.4654 4.98996 13.0346 4.98996C13.6038 4.98996 14.0592 4.5346 14.0592 3.9654ZM16.9431 4.98996C16.8672 3.62388 16.5636 2.4096 15.577 1.42299C14.5904 0.436384 13.3761 0.132812 12.01 0.0569196C10.606 -0.0189732 6.39397 -0.0189732 4.98996 0.0569196C3.62388 0.132812 2.44754 0.436384 1.42299 1.42299C0.436384 2.4096 0.132812 3.62388 0.0569196 4.98996C-0.0189732 6.39397 -0.0189732 10.606 0.0569196 12.01C0.132812 13.3761 0.436384 14.5525 1.42299 15.577C2.44754 16.5636 3.62388 16.8672 4.98996 16.9431C6.39397 17.019 10.606 17.019 12.01 16.9431C13.3761 16.8672 14.5904 16.5636 15.577 15.577C16.5636 14.5525 16.8672 13.3761 16.9431 12.01C17.019 10.606 17.019 6.39397 16.9431 4.98996ZM15.1217 13.49C14.856 14.2489 14.2489 14.8181 13.5279 15.1217C12.3895 15.577 9.73326 15.4632 8.51897 15.4632C7.26674 15.4632 4.61049 15.577 3.51004 15.1217C2.75112 14.8181 2.18192 14.2489 1.87835 13.49C1.42299 12.3895 1.53683 9.73326 1.53683 8.48103C1.53683 7.26674 1.42299 4.61049 1.87835 3.4721C2.18192 2.75112 2.75112 2.18192 3.51004 1.87835C4.61049 1.42299 7.26674 1.53683 8.51897 1.53683C9.73326 1.53683 12.3895 1.42299 13.5279 1.87835C14.2489 2.14397 14.8181 2.75112 15.1217 3.4721C15.577 4.61049 15.4632 7.26674 15.4632 8.48103C15.4632 9.73326 15.577 12.3895 15.1217 13.49Z" fill="#3700FF"/>
</svg>
