<svg width="24" height="24" viewBox="0 0 24 24" fill="none" xmlns="http://www.w3.org/2000/svg">
<path d="M21 12.7738V18.9276H17.5913V13.2081C17.5913 11.7602 17.1044 10.819 15.8522 10.819C15.0174 10.819 14.3913 11.3258 14.113 12.1222C14.0435 12.4118 13.9739 12.7014 13.9739 12.9909V19H10.5652C10.5652 19 10.6348 9.29864 10.5652 8.21267H13.9739V9.73303V9.80543H14.0435V9.73303C14.6696 8.57466 15.8522 7.92308 17.1044 7.92308C19.3305 7.92308 21 9.44344 21 12.7738ZM6.94784 3C5.76523 3 5 3.79638 5 4.88235C5 5.89593 5.83478 6.7647 6.73913 6.7647C6.8087 6.7647 6.8087 6.7647 6.87827 6.7647C8.06088 6.7647 8.82609 5.89593 8.82609 4.88235C8.82609 3.86878 7.99132 3 7.01741 3H6.94784ZM5.13914 18.9276H8.54783V8.21267H5.13914V18.9276Z" fill="#3700FF"/>
</svg>
