<svg width="43" height="42" viewBox="0 0 43 42" fill="none" xmlns="http://www.w3.org/2000/svg">
<path d="M38.0426 14.235C36.7054 18.1273 33.1851 19.7523 31.883 20.2331C30.2509 19.5909 25.1512 17.0919 25.1512 10.9498V5.36579L31.8303 4.33392L34.9154 1.24884L31.8619 0.775024L21.6415 2.35442V10.9463C21.6415 18.7871 27.9977 22.7602 31.3565 23.764L31.8338 23.9079L32.3147 23.778C35.6911 22.869 42.0788 19.0188 42.0788 10.9463V10.1952L38.0426 14.2315V14.235Z" fill="#00D15F"/>
<path d="M18.1525 32.384L15.8466 30.0781C15.1271 29.3586 13.7442 28.9269 12.6562 28.8532V28.8391H8.8446C7.72148 28.8391 6.64398 29.2849 5.85077 30.0781L1.23895 34.6899C0.44574 35.4831 0 37.0871 0 38.2102V41.2251H4.23628V33.7001C4.23628 33.5282 4.30648 33.3702 4.41879 33.2579C4.5311 33.1456 4.68904 33.0754 4.86102 33.0754H16.8398C17.0118 33.0754 17.1698 33.1456 17.2821 33.2579C17.3944 33.3702 17.4646 33.5282 17.4646 33.7001V41.2251H21.6973V37.6872C21.6973 36.5641 21.2516 35.4866 20.4584 34.6934L18.1525 32.3875V32.384Z" fill="#00D15F"/>
<path d="M31.742 15.151L27.0916 10.5005L29.573 8.01913L31.742 10.1882L37.4805 4.44971L39.9619 6.93111L31.742 15.151Z" fill="#00D15F"/>
<path d="M10.8451 15.6178C7.52835 15.6178 4.82935 18.3168 4.82935 21.6335C4.82935 24.9503 7.52835 27.6493 10.8451 27.6493C14.1618 27.6493 16.8608 24.9503 16.8608 21.6335C16.8608 18.3168 14.1618 15.6178 10.8451 15.6178ZM10.8486 24.0272C9.52541 24.0272 8.45493 22.9567 8.45493 21.6335C8.45493 20.3103 9.52541 19.2399 10.8486 19.2399C12.1718 19.2399 13.2422 20.3103 13.2422 21.6335C13.2422 22.9567 12.1718 24.0272 10.8486 24.0272Z" fill="#00D15F"/>
</svg>
