<svg width="40" height="40" viewBox="0 0 40 40" fill="none" xmlns="http://www.w3.org/2000/svg">
<path d="M38.692 6.17689L33.8231 1.31168C33.0894 0.578002 32.1297 0.129646 31.1107 0.0258944V0.00366211H0V30.6623C0 31.848 0.470589 32.9856 1.30801 33.823L6.17693 38.6882C7.01436 39.5257 8.15192 39.9963 9.33766 39.9963H40V9.33761C40 8.15188 39.5294 7.01431 38.692 6.17689ZM5.13201 35.5312C4.95044 35.5312 4.7837 35.4571 4.66512 35.3385C4.54655 35.22 4.47244 35.0532 4.47244 34.8717L4.45021 4.44646L34.8754 4.4724C35.057 4.4724 35.2237 4.54651 35.3423 4.66508C35.4609 4.78736 35.535 4.9504 35.535 5.13196C35.535 5.13196 35.5646 29.2617 35.5757 35.5349H5.13201V35.5312Z" fill="#00D15F"/>
<path d="M19.9982 15.5146C21.5137 15.5146 22.5216 16.3187 22.5216 16.8522H26.9681C26.9681 14.2585 25.0079 12.1167 22.2215 11.3645V8.91895H17.775V11.3645C14.9922 12.1167 13.0283 14.2585 13.0283 16.8522C13.0283 20.0945 16.089 22.6327 19.9982 22.6327C21.5137 22.6327 22.5216 23.4368 22.5216 23.9704C22.5216 24.5039 21.5174 25.3043 19.9982 25.3043C18.479 25.3043 17.4748 24.5002 17.4748 23.9704H13.0283C13.0283 26.5642 14.9885 28.7059 17.775 29.4581V31.0848H22.2215V29.4581C25.0042 28.7022 26.9681 26.5642 26.9681 23.9704C26.9681 20.7281 23.9074 18.1862 19.9982 18.1862C18.4827 18.1862 17.4748 17.3821 17.4748 16.8522C17.4748 16.3224 18.479 15.5146 19.9982 15.5146Z" fill="#00D15F"/>
</svg>
