<svg width="40" height="38" viewBox="0 0 40 38" fill="none" xmlns="http://www.w3.org/2000/svg">
<path d="M36.9754 13.1313H25.3649L25.8999 11.3405C26.9991 7.65355 25.6706 3.62808 22.5914 1.32053C21.9217 0.81825 21.0664 0.614428 20.2402 0.763655C19.4177 0.912882 18.6824 1.4006 18.2311 2.10305L10.0819 14.74H0.0363962L0 28.1122C0 29.2768 0.462238 30.3942 1.2848 31.2168L6.06733 35.9993C6.8899 36.8219 8.00728 37.2841 9.17198 37.2841L29.7361 37.2623C32 37.2623 34.02 35.9083 34.8826 33.8155L39.7707 21.9356C39.9236 21.568 40 21.1786 40 20.7819V16.1558C40 14.4852 38.6424 13.1276 36.9718 13.1276L36.9754 13.1313ZM5.04459 32.8983C4.86624 32.8983 4.70246 32.8255 4.58599 32.7091C4.46952 32.5926 4.39672 32.4288 4.39672 32.2505L4.40764 19.1149H9.0919V32.902H5.04823L5.04459 32.8983ZM35.636 20.5198L30.8499 32.1595C30.6642 32.6108 30.2311 32.902 29.7434 32.902H13.4595V17.5717L21.0009 5.87376C21.8599 7.07485 22.151 8.63627 21.7143 10.0994L20.6661 13.6153C20.3931 14.5253 20.5714 15.5262 21.1392 16.2905C21.707 17.0548 22.6133 17.5098 23.5669 17.5098H35.636V20.5271V20.5198Z" fill="#00D15F"/>
</svg>
